<svg xmlns="http://www.w3.org/2000/svg" viewBox="0 0 12 12" width="12" height="12">
  <g fill="none">
    <path d="M6 2.61818C7.40364 2.61818 8.32727 3.44727 8.66182 4.32H11.1709C10.7891 2.50909 8.80364 0.654545 6 0.654545C3.16364 0.654545 0.872727 2.94545 0.872727 6C0.872727 9.05455 3.16364 11.3455 6 11.3455C8.8909 11.3455 10.5818 9.49091 10.5818 6.54545C10.5818 6.16364 10.5273 5.89091 10.5273 5.89091H6V7.8H8.58545C8.41818 8.83636 7.49455 9.49091 6 9.49091C4.37818 9.49091 3.06545 8.10909 3.06545 6C3.06545 3.89091 4.37818 2.61818 6 2.61818Z" fill="#4285F4" />
  </g>
</svg>