<svg xmlns="http://www.w3.org/2000/svg" viewBox="0 0 24 24" width="24" height="24">
  <g fill="none">
    <path d="M12 5.23636C14.8073 5.23636 16.6545 6.89455 17.3236 8.64H22.3418C21.5782 5.01818 17.6073 1.30909 12 1.30909C6.32727 1.30909 1.74545 5.89091 1.74545 12C1.74545 18.1091 6.32727 22.6909 12 22.6909C17.7818 22.6909 21.1636 18.9818 21.1636 13.0909C21.1636 12.3273 21.0545 11.7818 21.0545 11.7818H12V15.6H17.1709C16.8364 17.6727 14.9891 18.9818 12 18.9818C8.75636 18.9818 6.13091 16.2182 6.13091 12C6.13091 7.78182 8.75636 5.23636 12 5.23636Z" fill="#4285F4" />
  </g>
</svg>