<svg xmlns="http://www.w3.org/2000/svg" viewBox="0 0 36 36" width="36" height="36">
  <g fill="none">
    <path d="M18 7.85455C22.211 7.85455 24.9818 10.3418 26.0018 12.96H33.5127C31.9491 7.52727 26.4109 1.96364 18 1.96364C9.49091 1.96364 2.61818 8.83636 2.61818 18C2.61818 27.1636 9.49091 34.0364 18 34.0364C26.6727 34.0364 31.7455 28.4727 31.7455 19.6364C31.7455 18.4909 31.5818 17.6727 31.5818 17.6727H18V23.4H25.7563C25.2545 26.5091 22.4836 28.4727 18 28.4727C13.1345 28.4727 9.19636 24.3273 9.19636 18C9.19636 11.6727 13.1345 7.85455 18 7.85455Z" fill="#4285F4" />
  </g>
</svg>